# xmcd CD database file
#
# Track frame offsets:
#	183
#	24808
#	63633
#	102408
#	117883
#	144908
#	162758
#	193008
#	224933
#
# Disc length: 3197 seconds
#
# Revision: 1
# Processed by: cddbd v1.5.2PL0 Copyright (c) Steve Scherf et al.
# Submitted via: CDex 1.51
#
DISCID=800c7b09
DTITLE=Various Artist - Jazz - vol. 2
DYEAR=1995
DGENRE=Jazz
TTITLE0=01-take five - Dave Bruebeck
TTITLE1=02-Comin' home baby - Herbie mann
TTITLE2=03-Equinox - John Coltrane
TTITLE3=04-Stop this world - Mose Allison
TTITLE4=05-Summertime The Modern Jazz Quartet 
TTITLE5=06-Stardust - Hank Crawford and The Marty Paich Orchestra
TTITLE6=07-Blue walk - Lou Donaldson
TTITLE7=08-Sarin Doll - Jimmy Smith
TTITLE8=09-I'll be seeing you - Tony Fruscella
EXTD=YEAR: 1995
EXTT0=
EXTT1=
EXTT2=
EXTT3=
EXTT4=
EXTT5=
EXTT6=
EXTT7=
EXTT8=
PLAYORDER=
